<svg width="800" height="800" viewBox="0 0 24 24" fill="#FFF" xmlns="http://www.w3.org/2000/svg"><path d="M16.47 14.53a.75.75 0 101.06-1.06l-1.06 1.06zM12 9l.53-.53a.75.75 0 00-1.06 0L12 9zm-5.53 4.47a.75.75 0 101.06 1.06l-1.06-1.06zm11.06 0l-5-5-1.06 1.06 5 5 1.06-1.06zm-6.06-5l-5 5 1.06 1.06 5-5-1.06-1.06zM8 4.75h8v-1.5H8v1.5zM19.25 8v8h1.5V8h-1.5zM16 19.25H8v1.5h8v-1.5zM4.75 16V8h-1.5v8h1.5zM8 19.25A3.25 3.25 0 014.75 16h-1.5A4.75 4.75 0 008 20.75v-1.5zM19.25 16A3.25 3.25 0 0116 19.25v1.5A4.75 4.75 0 0020.75 16h-1.5zM16 4.75A3.25 3.25 0 0119.25 8h1.5A4.75 4.75 0 0016 3.25v1.5zm-8-1.5A4.75 4.75 0 003.25 8h1.5A3.25 3.25 0 018 4.75v-1.5z" fill="#FFF"/></svg>